<svg xmlns="http://www.w3.org/2000/svg" width="33" height="26" viewBox="0 0 33 26"><defs><linearGradient id="a" x1="-57.527%" x2="232.391%" y1="50.124%" y2="50.124%"><stop stop-color="#007940" offset="0%"/><stop stop-color="#00873F" offset="22.85%"/><stop stop-color="#40A737" offset="74.33%"/><stop stop-color="#5CB531" offset="100%"/></linearGradient><linearGradient id="b" x1=".183%" x2="100.273%" y1="49.96%" y2="49.96%"><stop stop-color="#007940" offset="0%"/><stop stop-color="#00873F" offset="22.85%"/><stop stop-color="#40A737" offset="74.33%"/><stop stop-color="#5CB531" offset="100%"/></linearGradient><linearGradient id="c" x1="-62.802%" x2="253.671%" y1="49.858%" y2="49.858%"><stop stop-color="#007940" offset="0%"/><stop stop-color="#00873F" offset="22.85%"/><stop stop-color="#40A737" offset="74.33%"/><stop stop-color="#5CB531" offset="100%"/></linearGradient><linearGradient id="d" x1=".176%" x2="101.808%" y1="50.006%" y2="50.006%"><stop stop-color="#1F286F" offset="0%"/><stop stop-color="#004E94" offset="47.51%"/><stop stop-color="#0066B1" offset="82.61%"/><stop stop-color="#006FBC" offset="100%"/></linearGradient><linearGradient id="e" x1="-.576%" x2="98.133%" y1="49.914%" y2="49.914%"><stop stop-color="#6C2C2F" offset="0%"/><stop stop-color="#882730" offset="17.35%"/><stop stop-color="#BE1833" offset="57.31%"/><stop stop-color="#DC0436" offset="85.85%"/><stop stop-color="#E60039" offset="100%"/></linearGradient></defs><g fill="none"><path fill="#FFF" d="M30 19.565C30 22.01 28.049 24 25.653 24H2V6.435C2 3.99 3.951 2 6.347 2H30v17.565z"/><path fill="url(#a)" d="M20.298 12.767h1.797c.052 0 .172-.017.223-.017a.8.8 0 0 0 .633-.802.829.829 0 0 0-.633-.803c-.051-.017-.154-.017-.223-.017h-1.797v1.639z" transform="translate(2 2)"/><path fill="url(#b)" d="M21.89 1.45c-1.712 0-3.115 1.411-3.115 3.17v3.292h4.399c.102 0 .222 0 .308.017.992.052 1.728.575 1.728 1.48 0 .715-.496 1.324-1.42 1.446v.035c1.01.07 1.78.644 1.78 1.532 0 .958-.856 1.585-1.986 1.585h-4.826v6.444h4.57c1.711 0 3.115-1.41 3.115-3.17V1.451H21.89z" transform="translate(2 2)"/><path fill="url(#c)" d="M22.729 9.456a.727.727 0 0 0-.634-.734c-.034 0-.12-.017-.17-.017h-1.627v1.502h1.626c.052 0 .154 0 .171-.017a.727.727 0 0 0 .634-.734z" transform="translate(2 2)"/><path fill="url(#d)" d="M4.672 1.45c-1.711 0-3.115 1.413-3.115 3.173v7.827c.873.436 1.78.715 2.687.715 1.079 0 1.66-.663 1.66-1.57V7.9h2.67v3.678c0 1.43-.872 2.598-3.833 2.598-1.797 0-3.2-.401-3.2-.401v6.676H6.11c1.712 0 3.115-1.412 3.115-3.173V1.451H4.672z" transform="translate(2 2)"/><path fill="url(#e)" d="M10.166 4.617v4.141c.788-.678 2.157-1.113 4.365-1.009 1.18.053 2.447.383 2.447.383v1.34c-.633-.33-1.386-.627-2.362-.696-1.677-.122-2.687.713-2.687 2.175 0 1.479 1.01 2.314 2.687 2.175.976-.07 1.729-.383 2.362-.696v1.34s-1.25.33-2.447.382c-2.208.105-3.577-.33-4.365-1.009v7.308h4.57c1.711 0 3.115-1.41 3.115-3.167V1.451h-4.57c-1.711 0-3.115 1.41-3.115 3.166z" transform="translate(2 2)"/></g></svg>
