<svg xmlns="http://www.w3.org/2000/svg" width="33" height="26" viewBox="0 0 33 26"><defs><linearGradient id="a" x1="-233.561%" x2="372.942%" y1="26.058%" y2="23.566%"><stop stop-color="#191E5F" offset="0%"/><stop stop-color="#142787" stop-opacity=".818" offset="100%"/></linearGradient><linearGradient id="b" x1="-182.481%" x2="225.539%" y1="27.757%" y2="24.759%"><stop stop-color="#191E5F" offset="0%"/><stop stop-color="#142787" stop-opacity=".818" offset="100%"/></linearGradient><linearGradient id="c" x1="-230.002%" x2="110.954%" y1="26.836%" y2="23.739%"><stop stop-color="#191E5F" offset="0%"/><stop stop-color="#142787" stop-opacity=".818" offset="100%"/></linearGradient><linearGradient id="d" x1="-13.859%" x2="265.571%" y1="26.026%" y2="23.531%"><stop stop-color="#191E5F" offset="0%"/><stop stop-color="#142787" stop-opacity=".818" offset="100%"/></linearGradient><linearGradient id="e" x1="22.862%" x2="428.639%" y1="47.883%" y2="43.303%"><stop stop-color="#191E5F" offset="0%"/><stop stop-color="#142787" stop-opacity=".818" offset="100%"/></linearGradient></defs><g fill="none" fill-rule="evenodd"><path fill="url(#a)" d="M13.19.109h2.652l-1.659 9.646h-2.651z" transform="translate(0 8)"/><path fill="url(#b)" d="M23.815.42a6.902 6.902 0 0 0-2.377-.404c-2.62 0-4.466 1.308-4.482 3.183-.015 1.386 1.318 2.16 2.324 2.621 1.032.473 1.379.774 1.374 1.197-.007.646-.824.942-1.587.942-1.061 0-1.625-.147-2.496-.507l-.342-.153-.372 2.16c.62.269 1.765.502 2.954.514 2.788 0 4.598-1.293 4.618-3.296.01-1.097-.696-1.932-2.226-2.62-.927-.447-1.495-.745-1.489-1.197 0-.4.48-.83 1.519-.83a4.93 4.93 0 0 1 1.985.37l.237.112.36-2.091" transform="translate(0 8)"/><path fill="url(#c)" d="M30.615.193h-2.049c-.635 0-1.11.171-1.388.8l-3.94 8.84h2.786s.455-1.189.558-1.45l3.396.005c.08.337.323 1.445.323 1.445h2.46L30.616.193zm-3.27 6.217c.22-.556 1.057-2.696 1.057-2.696-.016.025.218-.559.351-.921l.18.832.614 2.785h-2.202z" transform="translate(0 8)"/><path fill="url(#d)" d="M9.315.027L6.72 6.605l-.277-1.337c-.483-1.54-1.989-3.21-3.673-4.046l2.375 8.436 2.805-.003L12.125.027h-2.81" transform="translate(.006 8.164)"/><path fill="url(#e)" d="M4.31.02H.034L0 .223c3.327.798 5.528 2.728 6.442 5.046L5.512.835C5.352.225 4.886.042 4.31.021" transform="translate(.006 8.164)"/></g></svg>
